{
    "asset" : {
        "generator" : "Khronos glTF Blender I/O v1.1.46",
        "version" : "2.0"
    },
    "scene" : 0,
    "scenes" : [
        {
            "name" : "panel",
            "nodes" : [
                0,
                1,
                2
            ]
        }
    ],
    "nodes" : [
        {
            "mesh" : 0,
            "name" : "panel",
            "rotation" : [
                -0.8148786425590515,
                0,
                0,
                0.5796316266059875
            ],
            "translation" : [
                0,
                0,
                2.0999999046325684
            ]
        },
        {
            "mesh" : 1,
            "name" : "chimney"
        },
        {
            "mesh" : 2,
            "name" : "roof"
        }
    ],
    "materials" : [
        {
            "doubleSided" : true,
            "emissiveFactor" : [
                0,
                0,
                0
            ],
            "name" : "panel",
            "normalTexture" : {
                "index" : 0,
                "texCoord" : 0
            },
            "pbrMetallicRoughness" : {
                "baseColorTexture" : {
                    "index" : 1,
                    "texCoord" : 0
                },
                "metallicRoughnessTexture" : {
                    "index" : 2,
                    "texCoord" : 0
                }
            }
        },
        {
            "doubleSided" : true,
            "emissiveFactor" : [
                0,
                0,
                0
            ],
            "name" : "chimney",
            "normalTexture" : {
                "index" : 3,
                "texCoord" : 0
            },
            "pbrMetallicRoughness" : {
                "baseColorTexture" : {
                    "index" : 4,
                    "texCoord" : 0
                },
                "metallicFactor" : 0,
                "roughnessFactor" : 0.4954545497894287
            }
        },
        {
            "doubleSided" : true,
            "emissiveFactor" : [
                0,
                0,
                0
            ],
            "name" : "roof",
            "pbrMetallicRoughness" : {
                "baseColorTexture" : {
                    "index" : 5,
                    "texCoord" : 0
                },
                "metallicFactor" : 0,
                "roughnessFactor" : 0.5
            }
        }
    ],
    "meshes" : [
        {
            "name" : "Cube",
            "primitives" : [
                {
                    "attributes" : {
                        "POSITION" : 0,
                        "NORMAL" : 1,
                        "TEXCOORD_0" : 2
                    },
                    "indices" : 3,
                    "material" : 0
                }
            ]
        },
        {
            "name" : "Cube.001",
            "primitives" : [
                {
                    "attributes" : {
                        "POSITION" : 4,
                        "NORMAL" : 5,
                        "TEXCOORD_0" : 6
                    },
                    "indices" : 7,
                    "material" : 1
                }
            ]
        },
        {
            "name" : "Plane",
            "primitives" : [
                {
                    "attributes" : {
                        "POSITION" : 8,
                        "NORMAL" : 9,
                        "TEXCOORD_0" : 10
                    },
                    "indices" : 11,
                    "material" : 2
                }
            ]
        }
    ],
    "textures" : [
        {
            "source" : 0
        },
        {
            "source" : 1
        },
        {
            "source" : 1
        },
        {
            "source" : 2
        },
        {
            "source" : 3
        },
        {
            "source" : 3
        }
    ],
    "images" : [
        {
            "bufferView" : 4,
            "mimeType" : "image/png",
            "name" : "panel-normal"
        },
        {
            "bufferView" : 5,
            "mimeType" : "image/png",
            "name" : "panel"
        },
        {
            "bufferView" : 10,
            "mimeType" : "image/png",
            "name" : "building-normal"
        },
        {
            "bufferView" : 11,
            "mimeType" : "image/png",
            "name" : "building"
        }
    ],
    "accessors" : [
        {
            "bufferView" : 0,
            "componentType" : 5126,
            "count" : 56,
            "max" : [
                3.7092719078063965,
                0,
                0.14238908886909485
            ],
            "min" : [
                -3.7092719078063965,
                -5.1022047996521,
                2.2351741790771484e-08
            ],
            "type" : "VEC3"
        },
        {
            "bufferView" : 1,
            "componentType" : 5126,
            "count" : 56,
            "type" : "VEC3"
        },
        {
            "bufferView" : 2,
            "componentType" : 5126,
            "count" : 56,
            "type" : "VEC2"
        },
        {
            "bufferView" : 3,
            "componentType" : 5123,
            "count" : 84,
            "type" : "SCALAR"
        },
        {
            "bufferView" : 6,
            "componentType" : 5126,
            "count" : 24,
            "max" : [
                1.9996068477630615,
                11.604692459106445,
                1.9996066093444824
            ],
            "min" : [
                -1.9996068477630615,
                -12.352863311767578,
                -1.9996075630187988
            ],
            "type" : "VEC3"
        },
        {
            "bufferView" : 7,
            "componentType" : 5126,
            "count" : 24,
            "type" : "VEC3"
        },
        {
            "bufferView" : 8,
            "componentType" : 5126,
            "count" : 24,
            "type" : "VEC2"
        },
        {
            "bufferView" : 9,
            "componentType" : 5123,
            "count" : 36,
            "type" : "SCALAR"
        },
        {
            "bufferView" : 12,
            "componentType" : 5126,
            "count" : 4,
            "max" : [
                22.084081649780273,
                5,
                20
            ],
            "min" : [
                -22.084081649780273,
                0,
                2
            ],
            "type" : "VEC3"
        },
        {
            "bufferView" : 13,
            "componentType" : 5126,
            "count" : 4,
            "type" : "VEC3"
        },
        {
            "bufferView" : 14,
            "componentType" : 5126,
            "count" : 4,
            "type" : "VEC2"
        },
        {
            "bufferView" : 15,
            "componentType" : 5123,
            "count" : 6,
            "type" : "SCALAR"
        }
    ],
    "bufferViews" : [
        {
            "buffer" : 0,
            "byteLength" : 672,
            "byteOffset" : 0
        },
        {
            "buffer" : 0,
            "byteLength" : 672,
            "byteOffset" : 672
        },
        {
            "buffer" : 0,
            "byteLength" : 448,
            "byteOffset" : 1344
        },
        {
            "buffer" : 0,
            "byteLength" : 168,
            "byteOffset" : 1792
        },
        {
            "buffer" : 0,
            "byteLength" : 69431,
            "byteOffset" : 1960
        },
        {
            "buffer" : 0,
            "byteLength" : 15863,
            "byteOffset" : 71392
        },
        {
            "buffer" : 0,
            "byteLength" : 288,
            "byteOffset" : 87256
        },
        {
            "buffer" : 0,
            "byteLength" : 288,
            "byteOffset" : 87544
        },
        {
            "buffer" : 0,
            "byteLength" : 192,
            "byteOffset" : 87832
        },
        {
            "buffer" : 0,
            "byteLength" : 72,
            "byteOffset" : 88024
        },
        {
            "buffer" : 0,
            "byteLength" : 173018,
            "byteOffset" : 88096
        },
        {
            "buffer" : 0,
            "byteLength" : 123044,
            "byteOffset" : 261116
        },
        {
            "buffer" : 0,
            "byteLength" : 48,
            "byteOffset" : 384160
        },
        {
            "buffer" : 0,
            "byteLength" : 48,
            "byteOffset" : 384208
        },
        {
            "buffer" : 0,
            "byteLength" : 32,
            "byteOffset" : 384256
        },
        {
            "buffer" : 0,
            "byteLength" : 12,
            "byteOffset" : 384288
        }
    ],
    "buffers" : [
        {
            "byteLength" : 384300,
            "uri" : "data:application/octet-stream;base64,"
        }
    ]
}
